<?xml version="1.0" encoding="utf-8"?>
<!-- Generator: Adobe Illustrator 21.1.0, SVG Export Plug-In . SVG Version: 6.00 Build 0)  -->
<svg version="1.1" id="圖層_1" xmlns="http://www.w3.org/2000/svg" xmlns:xlink="http://www.w3.org/1999/xlink" x="0px" y="0px"
	 viewBox="0 0 512 512" style="enable-background:new 0 0 512 512;" xml:space="preserve">
<style type="text/css">
	.st0{fill:#777777;}
	.st1{fill:#FFFFFF;}
</style>
<path class="st0" d="M512,58.7C512,26.3,485.7,0,453.3,0H58.7C26.3,0,0,26.3,0,58.7v394.7C0,485.7,26.3,512,58.7,512h394.7
	c32.4,0,58.7-26.3,58.7-58.7V58.7H512z"/>
<path class="st1" d="M385.8,171.6c8.3,8.3,8.3,21.8,0,30.2L247.1,340.4c-4.2,4.2-9.6,6.3-15.1,6.3s-10.9-2.1-15.1-6.3l-69.3-69.3
	c-8.3-8.3-8.3-21.8,0-30.2c8.3-8.3,21.8-8.3,30.2,0l54.3,54.3l123.6-123.6C363.9,163.2,377.4,163.2,385.8,171.6z"/>
</svg>
