<?xml version="1.0" encoding="utf-8"?>
<!-- Generator: Adobe Illustrator 21.1.0, SVG Export Plug-In . SVG Version: 6.00 Build 0)  -->
<svg version="1.1" id="Capa_1" xmlns="http://www.w3.org/2000/svg" xmlns:xlink="http://www.w3.org/1999/xlink" x="0px" y="0px"
	 viewBox="0 0 492.4 492.4" style="enable-background:new 0 0 492.4 492.4;" xml:space="preserve">
<style type="text/css">
	.st0{fill:#666666;}
</style>
<path id="XMLID_586_" class="st0" d="M228.4,137.8V92.4c0-9.7-5.4-18.6-13.9-23.1c-8.6-4.5-19-3.9-27,1.5L10.2,192.1
	C3.8,196.5,0,203.7,0,211.4c0,7.7,3.7,14.9,10.1,19.3l177.3,122.9c8,5.6,18.4,6.2,27,1.7c8.6-4.5,14-13.4,14-23.2v-38.3
	c93.2,2.7,174.6,50.6,221.5,122c5.5,8.3,16,12.2,25.8,9.5c9.8-2.7,16.6-11.4,16.7-21.3c0-0.9,0-1.8,0-2.6
	C492.4,258.3,374.9,142.1,228.4,137.8z"/>
</svg>
