<?xml version="1.0" encoding="utf-8"?>
<!-- Generator: Adobe Illustrator 21.1.0, SVG Export Plug-In . SVG Version: 6.00 Build 0)  -->
<svg version="1.1" id="Capa_1" xmlns="http://www.w3.org/2000/svg" xmlns:xlink="http://www.w3.org/1999/xlink" x="0px" y="0px"
	 viewBox="0 0 448 448" style="enable-background:new 0 0 448 448;" xml:space="preserve">
<style type="text/css">
	.st0{fill:#FFFFFF;}
</style>
<g>
	<g>
		<path class="st0" d="M308.3,151.3c-11.2,0-20.3,9.1-20.3,20.3s9.1,20.3,20.3,20.3s20.3-9.1,20.3-20.3S319.6,151.3,308.3,151.3z
			 M308.3,176c-2.4,0-4.3-1.9-4.3-4.3s1.9-4.3,4.3-4.3s4.3,1.9,4.3,4.3C312.7,174.1,310.7,176,308.3,176z"/>
	</g>
</g>
<g>
	<g>
		<path class="st0" d="M415.3,263.9c20-17.6,32.7-43.2,32.7-71.9c0-0.5-0.1-0.9-0.1-1.4c-5.2,0.9-10.5,1.4-15.9,1.4
			c-52.5,0-95.2-42.2-95.9-94.6c-41.6,7-73.6,40.8-78.8,83c-10.6-2.9-21.8-4.5-33.3-4.5c-48,0-89.7,26.4-111.6,65.5
			c-5.3-0.9-10.8-1.5-16.4-1.5c-53,0-96,43-96,96s43,96,96,96h256c53,0,96-43,96-96C448,307.2,435.3,281.5,415.3,263.9z
			 M322.2,117.8c10.1,50.7,54.9,89.4,108.2,90.2c-3.8,18.6-14.4,34.5-28.8,45.9c-5.9-3.5-12.1-6.5-18.7-8.7c0.6-1.6,1.1-3.4,1.1-5.2
			c0-8.8-7.2-16-16-16s-16,7.2-16,16c-5.6,0-11,0.6-16.4,1.5c-14.1-25.1-36.4-44.8-63.2-55.8C274.9,155,294.3,128.9,322.2,117.8z
			 M352,416H96c-44.1,0-80-35.9-80-80s35.9-80,80-80c4.2,0,8.7,0.4,13.6,1.3l11.1,1.9l5.5-9.9C146.1,214,183.6,192,224,192
			s77.9,22,97.7,57.3l5.5,9.9l11.1-1.9c4.9-0.8,9.4-1.3,13.6-1.3c44.1,0,80,35.9,80,80S396.1,416,352,416z"/>
	</g>
</g>
<g>
	<g>
		<path class="st0" d="M144,16c0,36.8-27.2,64-64,64c36.8,0,64,27.2,64,64c0-36.8,27.2-64,64-64C171.2,80,144,52.8,144,16z
			 M144,94.8c-4.2-5.6-9.2-10.6-14.8-14.8c5.6-4.2,10.6-9.2,14.8-14.8c4.2,5.6,9.2,10.6,14.8,14.8C153.2,84.2,148.2,89.2,144,94.8z"
			/>
	</g>
</g>
<g>
	<g>
		<path class="st0" d="M51.2,166.3C39.7,161.6,32,150.5,32,136.8c0,6.9-1.9,13.1-5.3,18.2c-2.2,3.4-5.1,6.3-8.5,8.5
			c-1.7,1.1-3.5,2.1-5.4,2.9c-3.9,1.6-8.2,2.4-12.8,2.4c4.6,0,8.9,0.9,12.8,2.4c1.9,0.8,3.8,1.7,5.4,2.9c3.4,2.2,6.3,5.1,8.5,8.5
			c3.4,5.1,5.3,11.3,5.3,18.2c0-13.8,7.7-24.9,19.2-29.6c3.9-1.6,8.2-2.4,12.8-2.4C59.4,168.8,55.1,167.9,51.2,166.3z"/>
	</g>
</g>
</svg>
