<?xml version="1.0" encoding="utf-8"?>
<!-- Generator: Adobe Illustrator 21.1.0, SVG Export Plug-In . SVG Version: 6.00 Build 0)  -->
<svg version="1.1" id="圖層_1" xmlns="http://www.w3.org/2000/svg" xmlns:xlink="http://www.w3.org/1999/xlink" x="0px" y="0px"
	 viewBox="0 0 510 510" style="enable-background:new 0 0 510 510;" xml:space="preserve">
<style type="text/css">
	.st0{fill:#666666;}
</style>
<path class="st0" d="M452.7,314.3L415,276.6L245.3,106.9c-31.3-31-81.8-31-112.9,0.2s-31.3,81.7-0.2,112.9l169.7,169.8
	c6.9,6.9,18.2,6.9,25.1,0c6.9-6.9,6.9-18.2,0-25.1L157.3,194.9c-17.4-17.4-17.4-45.5,0-62.9s45.5-17.4,62.9,0l169.8,169.7l37.7,37.7
	c31.2,31.3,31.2,81.9,0,113.2c-31.3,31.2-81.9,31.2-113.2,0L283,421.2l-176-176l-12.6-12.6c-44-45.3-43.4-117.5,1.2-162.2
	c44.6-44.6,116.9-45.2,162.2-1.2l188.6,188.6c4.5,4.5,11,6.2,17.2,4.6c6.1-1.6,10.9-6.4,12.6-12.6c1.6-6.1-0.1-12.7-4.6-17.2L283,44
	c-59.1-58.8-154.6-58.7-213.5,0.2c-58.9,58.9-59,154.4-0.2,213.5l188.6,188.6l31.5,31.4c45.4,43.6,117.3,42.9,161.8-1.6
	C495.6,431.6,496.3,359.7,452.7,314.3z"/>
</svg>
