<?xml version="1.0" encoding="utf-8"?>
<!-- Generator: Adobe Illustrator 21.1.0, SVG Export Plug-In . SVG Version: 6.00 Build 0)  -->
<svg version="1.1" id="Capa_1" xmlns="http://www.w3.org/2000/svg" xmlns:xlink="http://www.w3.org/1999/xlink" x="0px" y="0px"
	 viewBox="0 0 38.1 47.6" style="enable-background:new 0 0 38.1 47.6;" xml:space="preserve">
<style type="text/css">
	.st0{fill:url(#SVGID_1_);}
	.st1{fill:url(#SVGID_2_);}
</style>
<g>
	<linearGradient id="SVGID_1_" gradientUnits="userSpaceOnUse" x1="-7.0757" y1="10.0968" x2="38.5741" y2="55.7466">
		<stop  offset="0" style="stop-color:#8ACEDE"/>
		<stop  offset="1" style="stop-color:#FBC2EB"/>
	</linearGradient>
	<path class="st0" d="M13.3,41c0,3.7-3,6.6-6.6,6.6l0,0C3,47.6,0,44.6,0,41V6.6C0,3,3,0,6.6,0l0,0c3.7,0,6.6,3,6.6,6.6V41z"/>
	<linearGradient id="SVGID_2_" gradientUnits="userSpaceOnUse" x1="5.3672" y1="-2.3462" x2="51.0171" y2="43.3036">
		<stop  offset="0" style="stop-color:#8ACEDE"/>
		<stop  offset="1" style="stop-color:#FBC2EB"/>
	</linearGradient>
	<path class="st1" d="M38.1,41c0,3.7-3,6.6-6.6,6.6l0,0c-3.7,0-6.6-3-6.6-6.6V6.6c0-3.7,3-6.6,6.6-6.6l0,0c3.7,0,6.6,3,6.6,6.6V41z"
		/>
</g>
</svg>
