<?xml version="1.0" encoding="utf-8"?>
<!-- Generator: Adobe Illustrator 21.1.0, SVG Export Plug-In . SVG Version: 6.00 Build 0)  -->
<svg version="1.1" id="圖層_1" xmlns="http://www.w3.org/2000/svg" xmlns:xlink="http://www.w3.org/1999/xlink" x="0px" y="0px"
	 viewBox="0 0 512 512" style="enable-background:new 0 0 512 512;" xml:space="preserve">
<style type="text/css">
	.st0{fill:#FFFFFF;}
</style>
<path class="st0" d="M476.5,142.5c-11-7.9-23.7-12.9-37.1-14.5C431.7,55.7,370.4,0,296.9,0c-23.1,0-45.2,5.4-65.7,15.9
	c-3.7,1.9-5.1,6.4-3.2,10.1s6.4,5.1,10.1,3.2c18.3-9.5,38.1-14.3,58.8-14.3c67.7,0,124,52.9,128.1,120.5c0.2,3.9,3.4,6.9,7.2,7
	c12.8,0.4,25.1,4.6,35.5,12.2c1.3,1,2.9,1.4,4.4,1.4c2.3,0,4.6-1.1,6.1-3.1C480.6,149.6,479.9,144.9,476.5,142.5z"/>
<path class="st0" d="M500.3,169.7c-1.9-3.7-6.5-5-10.1-3.1c-3.7,1.9-5,6.5-3.1,10.1c4.9,9.3,7.5,19.7,7.5,30.3
	c0,11.4-3,22.7-8.8,32.5c-2.1,3.6-0.9,8.2,2.7,10.3c1.2,0.7,2.5,1,3.8,1c2.6,0,5.1-1.3,6.5-3.7c7.1-12.1,10.8-26,10.8-40.1
	C509.6,194.1,506.4,181.1,500.3,169.7z"/>
<path class="st0" d="M465.7,260.9c-10.6,7.1-23,10.8-35.7,10.8H290.6c17.5-13.4,28.8-34.4,28.8-58.1c0-19.4-7.5-37.6-21.1-51.4
	c-12.4-12.5-28.6-20.1-46-21.5c-7.6-17.8-20-33-35.9-44.2c-9.8-6.9-20.6-12-31.9-15.2c7.1-12.9,16.4-24.5,27.6-34.3
	c3.1-2.7,3.4-7.5,0.7-10.6c-2.7-3.1-7.5-3.4-10.6-0.7c-13.7,12.1-24.8,26.4-33.1,42.5c-4.3-0.5-8.6-0.8-13-0.8
	c-53,0-97.5,39.8-103.8,91.8C23.6,173.4,2,197.9,2,227.6c0,32.6,26.5,59.1,59.1,59.1H430c15.7,0,31-4.6,44-13.3
	c3.4-2.3,4.4-6.9,2.1-10.4C473.8,259.6,469.1,258.6,465.7,260.9z M61.1,271.7c-24.3,0-44.1-19.8-44.1-44.1c0-23.9,18.7-43.2,42.5-44
	c3.9-0.1,7-3.2,7.2-7c2.9-47.2,42.1-84.1,89.4-84.1c37.2,0,70.9,23.4,83.9,58.2c1.1,2.9,3.8,4.8,6.9,4.9
	c31.6,0.4,57.4,26.4,57.4,58.1c0,32-26.1,58.1-58.1,58.1H61.1z"/>
<path class="st0" d="M396.5,126.8c0.6,0,1.2-0.1,1.8-0.2c4-1,6.5-5,5.5-9c-1.5-6.1-3.5-12.1-5.9-17.8c-1.6-3.8-6.1-5.6-9.9-3.9
	c-3.8,1.6-5.6,6.1-3.9,9.9c2.1,4.9,3.9,10.1,5.1,15.4C390.1,124.5,393.1,126.8,396.5,126.8z"/>
<path class="st0" d="M365.5,77.6c1.5,1.5,3.4,2.3,5.4,2.3c1.9,0,3.7-0.7,5.2-2.1c3-2.9,3.1-7.6,0.2-10.6
	c-21-21.9-49.2-33.9-79.4-33.9c-4.1,0-7.5,3.4-7.5,7.5s3.4,7.5,7.5,7.5C323,48.4,347.3,58.8,365.5,77.6z"/>
<path class="st0" d="M122,347.9c0-2.7,0-11-16.1-35.3c-2.6-4-7.1-6.4-11.8-6.4s-9.2,2.4-11.8,6.4C66,336.9,66,345.2,66,347.9
	c0,15.4,12.6,28,28,28C109.5,375.9,122,363.3,122,347.9z M81,347.9c0-2.9,3.4-11.4,13-26c9.6,14.6,13,23.1,13,26c0,7.2-5.8,13-13,13
	S81,355,81,347.9z"/>
<path class="st0" d="M214.4,347.9c0-2.7,0-11-16.1-35.3c-2.6-4-7.1-6.4-11.8-6.4s-9.2,2.4-11.8,6.4c-16.1,24.3-16.1,32.6-16.1,35.3
	c0,15.4,12.6,28,28,28C201.9,375.9,214.4,363.3,214.4,347.9z M173.5,347.9c0-2.9,3.4-11.4,13-26c9.6,14.6,13,23.1,13,26
	c0,7.2-5.8,13-13,13S173.5,355,173.5,347.9z"/>
<path class="st0" d="M306.9,347.9c0-2.7,0-11-16.1-35.3c-2.6-4-7.1-6.4-11.9-6.4c-4.8,0-9.2,2.4-11.8,6.4
	c-16.1,24.3-16.1,32.6-16.1,35.3c0,15.4,12.6,28,28,28C294.3,375.9,306.9,363.3,306.9,347.9z M265.9,347.9c0-2.9,3.4-11.4,13-26
	c9.6,14.6,13,23.1,13,26c0,7.2-5.8,13-13,13S265.9,355,265.9,347.9z"/>
<path class="st0" d="M399.3,347.9c0-2.7,0-11-16.1-35.3c-2.6-4-7.1-6.4-11.8-6.4s-9.2,2.4-11.9,6.4c-16.1,24.3-16.1,32.6-16.1,35.3
	c0,15.4,12.6,28,28,28C386.8,375.9,399.3,363.3,399.3,347.9z M358.4,347.9c0-2.9,3.4-11.4,13-26c9.6,14.6,13,23.1,13,26
	c0,7.2-5.8,13-13,13S358.4,355,358.4,347.9z"/>
<path class="st0" d="M94,442.4c-4.8,0-9.2,2.4-11.8,6.4C66,473.1,66,481.3,66,484c0,15.4,12.6,28,28,28c15.4,0,28-12.6,28-28
	c0-2.7,0-11-16.1-35.3C103.2,444.7,98.8,442.4,94,442.4z M94,497c-7.2,0-13-5.8-13-13c0-2.9,3.4-11.4,13-26c9.6,14.6,13,23.1,13,26
	C107,491.2,101.2,497,94,497z"/>
<path class="st0" d="M186.5,442.4c-4.8,0-9.2,2.4-11.8,6.4c-16.1,24.3-16.1,32.6-16.1,35.3c0,15.4,12.6,28,28,28
	c15.4,0,28-12.6,28-28c0-2.7,0-11-16.1-35.3C195.7,444.7,191.2,442.4,186.5,442.4z M186.5,497c-7.2,0-13-5.8-13-13
	c0-2.9,3.4-11.4,13-26c9.6,14.6,13,23.1,13,26C199.4,491.2,193.6,497,186.5,497z"/>
<path class="st0" d="M278.9,442.4c-4.8,0-9.2,2.4-11.8,6.4c-16.1,24.3-16.1,32.6-16.1,35.3c0,15.4,12.6,28,28,28
	c15.4,0,28-12.6,28-28c0-2.7,0-11-16.1-35.3C288.1,444.7,283.7,442.4,278.9,442.4z M278.9,497c-7.2,0-13-5.8-13-13
	c0-2.9,3.4-11.4,13-26c9.6,14.6,13,23.1,13,26C291.9,491.2,286.1,497,278.9,497z"/>
<path class="st0" d="M371.3,442.4c-4.8,0-9.2,2.4-11.9,6.4c-16.1,24.3-16.1,32.6-16.1,35.3c0,15.4,12.6,28,28,28
	c15.4,0,28-12.6,28-28c0-2.7,0-11-16.1-35.3C380.6,444.7,376.1,442.4,371.3,442.4z M371.3,497c-7.2,0-13-5.8-13-13
	c0-2.9,3.4-11.4,13-26c9.6,14.6,13,23.1,13,26C384.3,491.2,378.5,497,371.3,497z"/>
<path class="st0" d="M168.2,415.2c0-2.7,0-11-16.1-35.3c-2.6-4-7.1-6.4-11.8-6.4s-9.2,2.4-11.8,6.4c-16.1,24.3-16.1,32.6-16.1,35.3
	c0,15.4,12.6,28,28,28S168.2,430.6,168.2,415.2z M140.2,428.1c-7.2,0-13-5.8-13-13c0-2.9,3.4-11.4,13-26c9.6,14.6,13,23.1,13,26
	C153.2,422.3,147.4,428.1,140.2,428.1z"/>
<path class="st0" d="M260.7,415.2c0-2.7,0-11-16.1-35.3c-2.6-4-7.1-6.4-11.8-6.4s-9.2,2.4-11.8,6.4c-16.1,24.3-16.1,32.6-16.1,35.3
	c0,15.4,12.6,28,28,28S260.7,430.6,260.7,415.2z M232.7,428.1c-7.2,0-13-5.8-13-13c0-2.9,3.4-11.4,13-26c9.6,14.6,13,23.1,13,26
	C245.7,422.3,239.8,428.1,232.7,428.1z"/>
<path class="st0" d="M353.1,415.2c0-2.7,0-11-16.1-35.3c-2.6-4-7.1-6.4-11.8-6.4s-9.2,2.4-11.8,6.4c-16.1,24.3-16.1,32.6-16.1,35.3
	c0,15.4,12.6,28,28,28S353.1,430.6,353.1,415.2z M325.1,428.1c-7.2,0-13-5.8-13-13c0-2.9,3.4-11.4,13-26c9.6,14.6,13,23.1,13,26
	C338.1,422.3,332.3,428.1,325.1,428.1z"/>
<path class="st0" d="M417.6,373.5c-4.8,0-9.2,2.4-11.8,6.4c-16.1,24.3-16.1,32.6-16.1,35.3c0,15.4,12.6,28,28,28s28-12.6,28-28
	c0-2.7,0-11-16.1-35.3C426.8,375.9,422.3,373.5,417.6,373.5z M417.6,428.1c-7.2,0-13-5.8-13-13c0-2.9,3.4-11.4,13-26
	c9.6,14.6,13,23.1,13,26C430.6,422.3,424.7,428.1,417.6,428.1z"/>
</svg>
