<?xml version="1.0" encoding="utf-8"?>
<!-- Generator: Adobe Illustrator 21.1.0, SVG Export Plug-In . SVG Version: 6.00 Build 0)  -->
<svg version="1.1" id="圖層_1" xmlns="http://www.w3.org/2000/svg" xmlns:xlink="http://www.w3.org/1999/xlink" x="0px" y="0px"
	 viewBox="0 0 512 512" style="enable-background:new 0 0 512 512;" xml:space="preserve">
<style type="text/css">
	.st0{fill:#777777;}
</style>
<path class="st0" d="M453.3,512H58.7C26.3,512,0,485.7,0,453.3V58.7C0,26.3,26.3,0,58.7,0h394.7C485.7,0,512,26.3,512,58.7v394.7
	C512,485.7,485.7,512,453.3,512z M58.7,32C44,32,32,44,32,58.7v394.7C32,468,44,480,58.7,480h394.7c14.7,0,26.7-12,26.7-26.7V58.7
	C480,44,468,32,453.3,32H58.7z"/>
</svg>
