<?xml version="1.0" encoding="utf-8"?>
<!-- Generator: Adobe Illustrator 21.1.0, SVG Export Plug-In . SVG Version: 6.00 Build 0)  -->
<svg version="1.1" id="圖層_1" xmlns="http://www.w3.org/2000/svg" xmlns:xlink="http://www.w3.org/1999/xlink" x="0px" y="0px"
	 viewBox="0 0 63.1 17.4" style="enable-background:new 0 0 63.1 17.4;" xml:space="preserve">
<style type="text/css">
	.st0{fill:#FFFFFF;}
</style>
<g>
	<g>
		<path class="st0" d="M28.7,8.3l0.9,0.2c-0.3,0.9-0.6,1.8-1,2.5c0.1,0.5,0.2,0.7,0.3,0.7c0.1,0,0.2-0.4,0.2-1.2
			c0.1,0.2,0.4,0.4,0.7,0.6c-0.2,1.3-0.5,1.9-1,1.9c-0.4,0-0.7-0.4-0.9-1.1c-0.4,0.4-0.8,0.8-1.2,1.2c-0.2-0.3-0.4-0.5-0.6-0.7
			c0,0,0,0,0,0c0.2-0.1,0.4-0.3,0.7-0.5h-1.4v0.6h-0.8V8.4H27v3.2c0.2-0.2,0.4-0.5,0.6-0.8C27.5,10,27.4,9,27.4,7.9h-3.3V7h0.6
			c0-0.4-0.1-0.8-0.2-1.2L25,5.7h-0.7V5.3h-0.4v7.8H23v-1.7c-0.2,0-0.4,0.1-0.8,0.2c-0.5,0.1-0.9,0.2-1.1,0.2l-0.2-1.1
			c0.2,0,0.3,0,0.5-0.1V5.3h-0.4v-1h3.2v0.5h0.9V4h0.9v0.9h1v0.9h-0.8l0.6,0.1c0,0-0.1,0.4-0.4,1.2h0.7c0-0.9,0-2-0.1-3.1h1v0.7
			l0.6-0.3c0.4,0.5,0.7,1,0.9,1.6L29,6.4c-0.1-0.4-0.4-0.9-0.7-1.4c0,0.5,0,1.2,0,2.1h1.4v0.9h-1.4c0,0.5,0,1,0.1,1.5
			C28.5,9,28.6,8.6,28.7,8.3z M23,6.4V5.3h-0.6v1.1H23z M23,8.4V7.4h-0.6v1.1H23z M22.4,10.6l0.6-0.1V9.4h-0.6V10.6z M26.1,5.7h-0.9
			c0.1,0.4,0.2,0.8,0.2,1.2L25,7h1.3l-0.5-0.1C26,6.5,26.1,6.1,26.1,5.7z M26.1,9.2h-0.9v0.6h0.9V9.2z M25.3,11.1h0.9v-0.6h-0.9
			V11.1z"/>
		<path class="st0" d="M35.7,4.2H37c0,0.1,0,0.3,0,0.6c0.1,1.7,0.5,3.2,1.2,4.5c0.7,1.3,1.6,2.2,2.8,2.8c-0.4,0.3-0.7,0.6-0.9,1
			c-1.8-0.9-3-2.6-3.7-4.9c0,0,0,0,0,0c-0.6,2.2-1.8,3.9-3.5,4.9c-0.2-0.3-0.5-0.6-0.9-0.9c2.3-1.3,3.5-3.7,3.6-7.1
			c0-0.1,0-0.3,0-0.5C35.7,4.3,35.7,4.2,35.7,4.2z"/>
		<path class="st0" d="M44.1,4.9h7.3v8h-1.2v-0.8h-4.9v0.8h-1.2V4.9z M45.2,10.9h4.9V6.1h-4.9V10.9z"/>
		<path class="st0" d="M56,8.5V6.7c-0.3,0.3-0.6,0.5-0.8,0.6c-0.2-0.3-0.5-0.6-0.8-0.9c0,0,0,0,0,0c0.8-0.5,1.5-1.1,2.1-1.8
			c0.2-0.2,0.3-0.4,0.4-0.6l1,0.4c-0.3,0.5-0.5,0.9-0.8,1.2v3H56z M62,9.9l0.8,0.7c-0.4,0.3-0.9,0.5-1.5,0.8
			c0.5,0.4,1.2,0.6,1.9,0.7c-0.2,0.3-0.5,0.6-0.6,1c0,0,0,0,0,0.1c-1.4-0.3-2.5-1.1-3.2-2.2c-0.2-0.3-0.4-0.7-0.5-1
			c-0.3,0.3-0.7,0.5-1.1,0.8v1.2c0.2,0,0.5-0.1,0.8-0.1c0.6-0.1,1-0.1,1.3-0.1l0,1c-2.4,0.3-3.7,0.5-4.1,0.5l-0.1-1
			c0.1,0,0.3,0,0.5-0.1c0.2,0,0.4,0,0.5-0.1v-0.8c-0.5,0.2-1.1,0.4-1.6,0.5c-0.2-0.4-0.4-0.6-0.6-0.9c1.1-0.2,2-0.5,2.8-0.9h-2.6v-1
			h3.6V7.9h1.1v0.9h3.7v1H62z M57.4,5.6l1.7-0.2C59,5,59,4.5,58.9,4H60c0,0.4,0.1,0.9,0.2,1.3L62,5.2c-0.4-0.2-0.9-0.4-1.4-0.5
			L61.1,4c0.6,0.1,1.1,0.3,1.6,0.5l-0.4,0.6L63,5.1l0.1,1l-2.5,0.3c0.3,0.7,0.7,1.1,1.1,1.2c0.1,0,0.2,0.1,0.3,0.1
			c0.1,0,0.2-0.1,0.3-0.4c0-0.1,0-0.3,0.1-0.5c0.2,0.2,0.5,0.4,0.9,0.5c-0.1,0.7-0.3,1.2-0.6,1.4c-0.2,0.1-0.4,0.2-0.7,0.2
			c-0.8,0-1.5-0.4-2-1.3c-0.2-0.3-0.4-0.6-0.5-1l-1.9,0.2L57.4,5.6z M62,9.9h-2c0.2,0.3,0.3,0.6,0.6,0.8C61.1,10.4,61.6,10.2,62,9.9
			z"/>
	</g>
	<g>
		<g>
			<g>
				<polyline class="st0" points="16.2,5.1 16.2,13.9 8.1,17.4 0,13.9 0,1.8 11.5,1.8 9.8,3.7 1.9,3.7 1.9,12.6 8.1,15.3 14.3,12.6 
					14.3,7.2 				"/>
			</g>
		</g>
	</g>
	<g>
		<polygon class="st0" points="7.9,11.4 4.6,7.9 5.8,6.7 7.9,9 16,0 17.2,1.1 		"/>
	</g>
</g>
</svg>
